<svg width="44" height="33" viewBox="0 0 44 33" fill="none" xmlns="http://www.w3.org/2000/svg">
<g id="Icon" clip-path="url(#clip0_1064_750)">
<g id="Group">
<path id="Vector" d="M8.93262 32.1081C8.86751 32.1076 8.80275 32.0982 8.7401 32.0802C8.59729 32.038 8.47189 31.9497 8.38263 31.8288C8.29339 31.7081 8.24512 31.5612 8.24512 31.41V17.8444H0.682617C0.500281 17.8444 0.325409 17.7708 0.196478 17.6399C0.067546 17.509 -0.00488281 17.3316 -0.00488281 17.1465V0.698002C-0.00488281 0.512881 0.067546 0.335337 0.196478 0.204437C0.325409 0.0735352 0.500281 0 0.682617 0H17.8702C18.0524 0 18.2274 0.0735352 18.3562 0.204437C18.4852 0.335337 18.5577 0.512881 18.5577 0.698002V17.1325C18.5577 17.2647 18.5207 17.3941 18.451 17.5059L9.51353 31.7836C9.4515 31.883 9.36573 31.9649 9.26417 32.0216C9.16259 32.0784 9.04856 32.1081 8.93262 32.1081ZM1.37012 16.4345H8.93262C9.11495 16.4345 9.28982 16.508 9.41875 16.6389C9.54769 16.7698 9.62012 16.9474 9.62012 17.1325V28.9985L17.1827 16.9265V1.39601H1.37012V16.4345Z" fill="#A5A9B7"/>
<path id="Vector_2" d="M34.3701 32.1081C34.3049 32.1076 34.2402 32.0982 34.1776 32.0802C34.0348 32.038 33.9094 31.9497 33.8201 31.8288C33.7309 31.7081 33.6826 31.5612 33.6826 31.41V17.8444H26.1201C25.9377 17.8444 25.7629 17.7708 25.6339 17.6399C25.5051 17.509 25.4326 17.3316 25.4326 17.1465V0.698002C25.4326 0.512881 25.5051 0.335337 25.6339 0.204437C25.7629 0.0735352 25.9377 0 26.1201 0H43.3076C43.4899 0 43.6648 0.0735352 43.7937 0.204437C43.9227 0.335337 43.9951 0.512881 43.9951 0.698002V17.1325C43.9951 17.2647 43.9582 17.3941 43.8884 17.5059L34.9509 31.7836C34.889 31.883 34.8032 31.9649 34.7017 32.0216C34.6 32.0784 34.4859 32.1081 34.3701 32.1081ZM26.8076 16.4345H34.3701C34.5524 16.4345 34.7273 16.508 34.8562 16.6389C34.9852 16.7698 35.0576 16.9474 35.0576 17.1325V28.9985L42.6201 16.9265V1.39601H26.8076V16.4345Z" fill="#A5A9B7"/>
</g>
</g>
<defs>
<clipPath id="clip0_1064_750">
<rect width="44" height="33" fill="white"/>
</clipPath>
</defs>
</svg>
